[center][img]http://img607.imageshack.us/img607/3258/55863516.jpg[/img]



[img]http://leetleech.org/images/48874973695367351744.png[/img]


Format                           : AVI
Format/Info                      : Audio Video Interleave
File size                        : 1.62 GiB
Duration                         : 2h 22mn
Overall bit rate                 : 1 631 Kbps
Writing library                  : VirtualDub build 32839/release

Video
ID                               : 0
Format                           : MPEG-4 Visual
Format profile                   : Advanced Simple@L5
Format settings, BVOP            : Yes
Format settings, QPel            : No
Format settings, GMC             : No warppoints
Format settings, Matrix          : Custom
Codec ID                         : XVID
Codec ID/Hint                    : XviD
Duration                         : 2h 22mn
Bit rate                         : 1 174 Kbps
Width                            : 720 pixels
Height                           : 304 pixels
Display aspect ratio             : 2.35:1
Frame rate                       : 23.976 fps
Color space                      : YUV
Chroma subsampling               : 4:2:0
Bit depth                        : 8 bits
Scan type                        : Progressive
Bits/(Pixel*Frame)               : 0.224
Stream size                      : 1.17 GiB (72%)
Writing library                  : XviD 1.2.1 (UTC 2008-12-04)

Audio
ID                               : 1
Format                           : AC-3
Format/Info                      : Audio Coding 3
Mode extension                   : CM (complete main)
Codec ID                         : 2000
Duration                         : 2h 22mn
Bit rate mode                    : Constant
Bit rate                         : 448 Kbps
Channel(s)                       : 6 channels
Channel positions                : Front: L C R, Side: L R, LFE
Sampling rate                    : 48.0 KHz
Bit depth                        : 16 bits
Stream size                      : 455 MiB (27%)
Alignment                        : Split accross interleaves
Interleave, duration             : 42 ms (1.00 video frame)
Interleave, preload duration     : 500 ms




[url]http://www.imdb.com/title/tt0926084/[/url]




[IMG]http://leetleech.org/images/89524873606771859129.png[/IMG]


Users: 7.8/10 (63,210 votes) 500 reviews | Critics: 311 reviews Metascore: 65/100 (based on 42 reviews from Metacritic.com)

As Harry races against time and evil to destroy the Horcruxes, he uncovers the existence of three most powerful objects in the wizarding world: the Deathly Hallows.
Director:
David Yates
Writers:
Steve Kloves (screenplay), J.K. Rowling (novel)
Stars:
Daniel Radcliffe, Emma Watson and Rupert Grint 



[img]http://leetleech.org/images/95521316153253938506.png[/img]




[img]http://img849.imageshack.us/img849/7474/vlcsnap2011040718h34m41.png[/img]

[img]http://img854.imageshack.us/img854/7071/vlcsnap2011040718h34m18.png[/img]

[img]http://img197.imageshack.us/img197/9099/vlcsnap2011040718h36m18.png[/img]



Harry Potter And The Deathly Hallows Part 1 720p BluRay x264-TWiZTED .. Thanks 

Another up of this as my last one was corrupt so while ive had time here it is ..Not expecting many on this but was asked 



Greetz to Imagine ,Flawl3ss,DiLLoN,BDK,NOiR,TOXiCiNK,THC,Ez,Rx,Boobyblue





[img]http://img411.imageshack.us/img411/6898/sig1n.jpg[/img]




